ply
format ascii 1.0
comment VCGLIB generated
element vertex 32
property float x
property float y
property float z
property float nx
property float ny
property float nz
property int flags
element face 60
property list uchar int vertex_indices
property int flags
end_header
0 -0.75 0 0 -1 0 0 
0 0.75 0 0 1 0 0 
0.5 -0.75 0 0.8904133 -0.4452067 0.0946316 0 
0.4567727 -0.75 0.2033683 0.7749429 -0.4452066 0.4486139 0 
0.3345653 -0.75 0.3715724 0.5254778 -0.4452067 0.7250269 0 
0.1545085 -0.75 0.4755283 0.1851528 -0.4452067 0.8760762 0 
-0.05226423 -0.75 0.497261 -0.1871868 -0.4452067 0.8756438 0 
-0.25 -0.75 0.4330127 -0.52716 -0.4452067 0.7238048 0 
-0.4045085 -0.75 0.2938926 -0.7759826 -0.4452067 0.4468133 0 
-0.4890738 -0.75 0.1039558 -0.8906307 -0.4452067 0.09256367 0 
-0.4890738 -0.75 -0.1039558 -0.8512806 -0.4452067 -0.2776911 0 
-0.4045085 -0.75 -0.2938926 -0.6647364 -0.4452067 -0.5999305 0 
-0.25 -0.75 -0.4330127 -0.3632534 -0.4452067 -0.8184363 0 
-0.05226423 -0.75 -0.497261 0.001039634 -0.4452067 -0.8954272 0 
0.1545085 -0.75 -0.4755283 0.3651529 -0.4452067 -0.8175906 0 
0.3345653 -0.75 -0.3715724 0.6661278 -0.4452066 -0.5983851 0 
0.4567727 -0.75 -0.2033683 0.8519232 -0.4452067 -0.2757135 0 
1 0.75 0 0.9797298 0.1959459 -0.04164965 0 
0.9135454 0.75 0.4067366 0.9119682 0.195946 0.3604432 0 
0.6691306 0.75 0.7431448 0.6865189 0.1959459 0.7002121 0 
0.309017 0.75 0.9510565 0.3423643 0.1959459 0.918908 0 
-0.1045285 0.75 0.9945219 -0.06098829 0.195946 0.9787163 0 
-0.5 0.75 0.8660254 -0.4537953 0.195946 0.8692957 0 
-0.809017 0.75 0.5877852 -0.7681369 0.1959459 0.609566 0 
-0.9781476 0.75 0.2079117 -0.9496608 0.195946 0.2444368 0 
-0.9781476 0.75 -0.2079117 -0.9669798 0.195946 -0.1629578 0 
-0.809017 0.75 -0.5877852 -0.817099 0.1959459 -0.5421755 0 
-0.5 0.75 -0.8660254 -0.5259345 0.1959459 -0.827646 0 
-0.1045285 0.75 -0.9945219 -0.1438312 0.195946 -0.9700091 0 
0.309017 0.75 -0.9510565 0.2631421 0.1959459 -0.9446489 0 
0.6691306 0.75 -0.7431448 0.6246156 0.195946 -0.7559501 0 
0.9135454 0.75 -0.4067366 0.8780873 0.1959459 -0.4365407 0 
3 0 2 3 0 
3 0 3 4 0 
3 0 4 5 0 
3 0 5 6 0 
3 0 6 7 0 
3 0 7 8 0 
3 0 8 9 0 
3 0 9 10 0 
3 0 10 11 0 
3 0 11 12 0 
3 0 12 13 0 
3 0 13 14 0 
3 0 14 15 0 
3 0 15 16 0 
3 0 16 2 0 
3 1 18 17 0 
3 1 19 18 0 
3 1 20 19 0 
3 1 21 20 0 
3 1 22 21 0 
3 1 23 22 0 
3 1 24 23 0 
3 1 25 24 0 
3 1 26 25 0 
3 1 27 26 0 
3 1 28 27 0 
3 1 29 28 0 
3 1 30 29 0 
3 1 31 30 0 
3 1 17 31 0 
3 2 17 18 0 
3 2 18 3 0 
3 3 18 19 0 
3 3 19 4 0 
3 4 19 20 0 
3 4 20 5 0 
3 5 20 21 0 
3 5 21 6 0 
3 6 21 22 0 
3 6 22 7 0 
3 7 22 23 0 
3 7 23 8 0 
3 8 23 24 0 
3 8 24 9 0 
3 9 24 25 0 
3 9 25 10 0 
3 10 25 26 0 
3 10 26 11 0 
3 11 26 27 0 
3 11 27 12 0 
3 12 27 28 0 
3 12 28 13 0 
3 13 28 29 0 
3 13 29 14 0 
3 14 29 30 0 
3 14 30 15 0 
3 15 30 31 0 
3 15 31 16 0 
3 16 31 17 0 
3 16 17 2 0 
