ply
format ascii 1.0
comment VCGLIB generated
element vertex 8
property float x
property float y
property float z
property float nx
property float ny
property float nz
property int flags
element face 12
property list uchar int vertex_indices
property int flags
end_header
2.51457e-006 2.51457e-006 2.50293e-006 0 0 -1.5708 0 
2.51457e-006 0.635003 2.50293e-006 0 0 -0.785398 0 
0.635003 0.635003 2.50293e-006 0 0 -1.5708 0 
0.158753 0.476253 0.317502 0 0 1.5708 0 
0.158753 0.158753 0.317502 0 0 0.785398 0 
0.476253 0.476253 0.317502 0 0 0.785398 0 
0.476253 0.158753 0.317502 0 0 1.5708 0 
0.635003 2.51457e-006 2.50293e-006 0.455925 0 0.227963 0 
3 0 1 7 0 
3 7 1 2 0 
3 3 4 5 0 
3 5 4 6 0 
3 2 5 7 0 
3 7 5 6 0 
3 1 3 2 0 
3 2 3 5 0 
3 7 6 0 0 
3 0 6 4 0 
3 0 4 1 0 
3 1 4 3 0 
